<svg width="492" height="166" viewBox="0 0 492 166" fill="none" xmlns="http://www.w3.org/2000/svg">
<g clip-path="url(#clip0_157_436)">
<path d="M129.8 124.2C129.8 124.2 129.7 116.9 152.4 104.8C175.1 92.7 209.4 95.9 221.4 103.1C233.4 110.3 239.3 111.7 244.2 127.6C247.2 137.7 248.8 148.1 248.9 158.6H126L129.8 124.2Z" fill="#02AF91"/>
<path d="M172.9 137.1C175.6 139.3 187.7 141.5 190.5 140.8C197.9 138.9 205.7 136.3 210.3 129.8C212.9 126.2 214.1 121.7 215.1 117.3C216.2 112.2 217.1 106.7 215.7 101.7C210.7 84.7 184.5 82.9 171.4 89.8C152.5 99.8 159.7 126.1 172.9 137.1Z" fill="white"/>
<path d="M188.9 141.6C184.3 141.6 174.9 139.6 172.5 137.6C163.8 130.3 158.2 117.2 159.4 106.5C160 99.1 164.4 92.6 171 89.2C180 84.4 193.7 84 203.6 88.2C210.2 91 214.6 95.6 216.3 101.5C217.8 106.7 216.9 112.2 215.8 117.5C214.9 121.6 213.7 126.4 210.9 130.2C206.3 136.7 198.5 139.4 190.7 141.4C190.1 141.6 189.5 141.7 188.9 141.6ZM173.4 136.6C175.8 138.6 187.6 140.8 190.3 140.1C197.8 138.2 205.4 135.5 209.7 129.4C212.3 125.7 213.5 121.2 214.3 117.2C215.4 112.1 216.3 106.7 214.9 101.9C213.3 96.4 209.2 92.1 203 89.4C193.6 85.4 180.2 85.9 171.6 90.4C165.4 93.5 161.3 99.7 160.7 106.6C159.6 117 165 129.6 173.4 136.6Z" fill="#231F20"/>
<path d="M179.5 26.8C166.8 29 155.4 36.7 155.6 50.9C155.8 59.6 160.4 67.7 167 73.4C176.6 81.8 190.7 85.1 202.5 80.4C212.5 76.4 220.1 66.4 220.7 55.6C221.2 47 217.4 33 208.4 29.9C205 28.7 200.7 31.4 200.7 31.4C198.9 26.5 184.8 25.9 179.5 26.8Z" fill="white"/>
<path d="M191.1 83.2C182.1 83.2 173.4 79.9 166.5 74C159.3 67.7 155.1 59.3 154.9 51C154.7 38.2 163.8 29 179.3 26.2C184.6 25.3 198.1 25.8 200.8 30.6C202.2 29.9 205.5 28.4 208.4 29.4C217.5 32.5 221.7 46.7 221.2 55.8C220.6 66.7 213 77.1 202.6 81.2C199 82.6 195 83.3 191.1 83.2ZM184.6 27.1C182.9 27.1 181.2 27.2 179.5 27.5C164.7 30.1 155.9 38.9 156.1 51C156.2 59 160.3 67 167.2 73.1C176.9 81.6 191 84.4 202.1 80C212 76.1 219.3 66.1 219.9 55.7C220.4 47.1 216.5 33.6 208 30.6C204.9 29.5 200.9 32.1 200.8 32.1C200.6 32.2 200.4 32.2 200.2 32.2C200 32.1 199.9 32 199.8 31.8C198.9 28.3 190.8 27.1 184.6 27.1Z" fill="#231F20"/>
<path d="M202 94L202.1 112.5C202.1 112.5 200.2 122.9 188.9 119.7C182.2 117.7 176.6 112.9 173.9 106.4C173.9 106.4 173 67.3 172.7 55.5C186.4 55.3 201.5 46.5 201.5 46.5C201.5 46.5 206.2 53.6 208.3 55.8C209.9 57.5 211.4 59.4 212.5 61.4C214.4 65 214.3 69.4 214.2 73.4C214.2 78.1 213.7 82.8 212.8 87.4C211.1 96.2 202 94 202 94Z" fill="white"/>
<path d="M192.9 121C191.5 121 190.1 120.8 188.7 120.4C181.7 118.4 176.1 113.4 173.3 106.7C173.3 106.6 173.3 106.6 173.3 106.5C173.3 106.1 172.4 67.3 172.1 55.6C172.1 55.4 172.2 55.3 172.3 55.1C172.4 55 172.6 54.9 172.7 54.9C186.1 54.7 201 46 201.2 45.9C201.5 45.7 201.9 45.8 202.1 46.1C202.1 46.2 206.8 53.2 208.8 55.3C210.5 57 211.9 58.9 213.1 61C215.1 64.8 215 69.5 214.9 73.3C214.9 78 214.4 82.7 213.5 87.4C213.1 89.8 211.8 91.9 209.7 93.3C207.5 94.5 205 95 202.5 94.6L202.6 112.4C202 115.3 200.4 117.8 198 119.4C196.6 120.5 194.8 121 192.9 121ZM174.6 106.3C177.3 112.5 182.6 117.2 189.1 119.1C192.5 120 195.2 119.8 197.4 118.5C199.4 117 200.9 114.9 201.4 112.4L201.3 94C201.3 93.8 201.4 93.6 201.5 93.5C201.7 93.4 201.9 93.3 202 93.4C202 93.4 206 94.3 209 92.4C210.7 91.2 211.9 89.4 212.2 87.3C213.1 82.7 213.5 78.1 213.6 73.4C213.7 69.6 213.8 65.2 211.9 61.7C210.8 59.7 209.4 57.9 207.8 56.2C206 54.3 202.4 49 201.3 47.3C198.5 48.8 185.5 55.7 173.3 56.1C173.7 68.3 174.5 104.1 174.6 106.3Z" fill="#231F20"/>
<path d="M201.9 103.1C201.9 103.1 194.4 103.4 189.5 98.4C184.6 93.4 185.4 88.3 185.4 88.3C185.4 88.3 193.5 93.8 202 94L201.9 103.1Z" fill="#231F20"/>
<path d="M201.5 103.8C199.9 103.8 193.4 103.5 189 98.9C184 93.7 184.7 88.5 184.7 88.3C184.7 88.1 184.9 87.9 185.1 87.8C185.3 87.7 185.5 87.7 185.7 87.9C185.8 87.9 193.8 93.3 202 93.4C202.3 93.4 202.6 93.7 202.6 94L202.5 103.1C202.5 103.4 202.2 103.7 201.9 103.7L201.5 103.8ZM186 89.5C186.2 92.7 187.7 95.8 190 98C193.8 102 199.5 102.5 201.3 102.5L201.4 94.6C194.6 94.3 188.3 90.9 186 89.5Z" fill="#231F20"/>
<path d="M194.7 64.4C194.7 64.4 200.7 73.3 199.3 74.9C197.9 76.5 193.9 75.4 193.9 75.4" fill="white"/>
<path d="M196.5 76.4C195.6 76.4 194.6 76.3 193.7 76C193.4 75.9 193.2 75.6 193.3 75.2C193.4 74.9 193.7 74.7 194 74.8C194.9 75 197.8 75.5 198.8 74.5C199.4 73.9 197.2 69.3 194.2 64.8C194 64.6 193.9 64.2 194.2 63.9C194.4 63.7 194.8 63.6 195.1 63.9C195.2 64 195.2 64 195.2 64.1C197.1 66.9 201.3 73.6 199.7 75.3C198.8 76.1 197.7 76.5 196.5 76.4Z" fill="#231F20"/>
<path d="M202.567 63.4937C203.119 63.472 203.533 62.6045 203.491 61.556C203.45 60.5075 202.969 59.6751 202.418 59.6968C201.866 59.7184 201.452 60.586 201.493 61.6345C201.534 62.683 202.015 63.5154 202.567 63.4937Z" fill="#231F20"/>
<path d="M186.324 61.1592C186.355 60.1102 185.932 59.2467 185.38 59.2303C184.828 59.2139 184.356 60.0509 184.324 61.0998C184.293 62.1488 184.716 63.0124 185.268 63.0288C185.82 63.0451 186.293 62.2081 186.324 61.1592Z" fill="#231F20"/>
<path d="M176.6 67.7C174.6 64.9 171.6 59.9 167.5 61.4C166.4 61.8 165.5 62.6 164.7 63.5C161.4 67.4 161.9 72.6 164.1 76.9C166 80.6 171.9 86.2 175.9 81.5" fill="white"/>
<path d="M172.3 83.9C172.1 83.9 171.9 83.9 171.7 83.9C168 83.5 164.7 79.5 163.5 77.2C160.9 72 161.1 66.7 164.2 63.1C165 62.1 166 61.3 167.2 60.8C171.4 59.2 174.6 63.7 176.6 66.6L177.1 67.3C177.3 67.6 177.2 68 177 68.2C176.7 68.4 176.3 68.3 176.1 68.1L175.6 67.4C173.7 64.6 171 60.8 167.7 62C166.7 62.4 165.8 63 165.2 63.9C162.5 67.1 162.3 71.9 164.7 76.6C165.9 78.9 168.8 82.3 171.9 82.6C173.3 82.8 174.6 82.2 175.5 81.1C175.7 80.8 176.1 80.8 176.4 81C176.7 81.2 176.7 81.6 176.5 81.9C175.3 83.2 173.8 83.9 172.3 83.9Z" fill="#231F20"/>
<path d="M195.4 85.1C195.1 85.1 194.7 85.1 194.4 85C188.5 84.3 184.4 78.3 184.2 78C184.1 77.7 184.2 77.3 184.5 77.2C184.7 77.1 185 77.2 185.2 77.3C185.2 77.4 189.2 83.2 194.5 83.8C197.1 84.1 199.7 83.1 202.1 80.8C202.3 80.6 202.7 80.5 203 80.8C203.2 81 203.3 81.4 203 81.7C203 81.7 203 81.7 202.9 81.7C201 83.8 198.3 85 195.4 85.1Z" fill="#231F20"/>
<path d="M149.9 159.3C149.5 159.3 149.2 159 149.2 158.6V129.5C149.2 129.1 149.5 128.8 149.9 128.8C150.3 128.8 150.6 129.1 150.6 129.5V158.6C150.6 159 150.3 159.3 149.9 159.3Z" fill="#231F20"/>
<path d="M223.9 159.4C223.6 159.4 223.3 159.2 223.2 158.8L217.5 128.5C217.4 128.1 217.7 127.8 218.1 127.7C218.5 127.6 218.8 127.9 218.9 128.3L224.6 158.6C224.7 159 224.4 159.3 224 159.4H223.9Z" fill="#231F20"/>
<path d="M189.3 117.5C189.3 117.5 173.6 134.1 174.4 150.4L200.8 153.4C200.8 153.4 196 124.6 199 117.4L189.3 117.5Z" fill="white"/>
<path d="M200.8 154.1L174.3 151.1C174 151.1 173.7 150.8 173.7 150.4C172.9 134 188.1 117.7 188.8 117C188.9 116.9 189.1 116.8 189.3 116.8L199 116.6C199.2 116.6 199.5 116.7 199.6 116.9C199.7 117.1 199.8 117.3 199.7 117.6C196.8 124.6 201.5 153 201.6 153.3C201.7 153.7 201.4 154 201 154.1C200.9 154.1 200.8 154.1 200.8 154.1ZM175.1 149.7L200 152.6C199.2 147.8 195.9 125.8 198 118.1L189.6 118.2C187.8 120.2 174.7 135.1 175.1 149.7Z" fill="#231F20"/>
<path d="M187.6 136.1H187.5C187.1 136.1 186.9 135.7 186.9 135.3C187.7 129.8 189.8 124.6 193 120C193.2 119.7 193.7 119.6 194 119.9C194.3 120.1 194.4 120.6 194.1 120.9C191 125.3 189.1 130.3 188.3 135.5C188.2 135.9 187.9 136.1 187.6 136.1Z" fill="#D1D3D4"/>
<path d="M203.3 123.4C203.2 123.4 203.1 123.4 203 123.4C202.6 123.2 202.5 122.8 202.6 122.5C204.1 119.3 205.2 116 206.1 112.7C207 109.4 206.9 105.9 205.9 102.6C205.8 102.2 206 101.8 206.3 101.7C206.7 101.6 207.1 101.8 207.2 102.1C208.3 105.6 208.3 109.4 207.4 112.9C206.5 116.4 205.3 119.7 203.8 123C203.8 123.3 203.5 123.4 203.3 123.4Z" fill="#D1D3D4"/>
<path d="M187.8 67.2H179.9C177.1 67.2 174.9 65 174.9 62.2V56.8C174.9 56.4 175.2 56.1 175.6 56.1H192.1C192.5 56.1 192.8 56.4 192.8 56.8V62.2C192.8 64.9 190.6 67.2 187.8 67.2ZM176.3 57.5V62.2C176.3 64.2 177.9 65.8 179.9 65.8H187.8C189.8 65.8 191.4 64.2 191.4 62.2V57.5H176.3Z" fill="#231F20"/>
<path d="M207.4 67.2H199.5C196.7 67.2 194.5 65 194.5 62.2V56.8C194.5 56.4 194.8 56.1 195.2 56.1H211.7C212.1 56.1 212.4 56.4 212.4 56.8V62.2C212.4 64.9 210.2 67.2 207.4 67.2ZM195.9 57.5V62.2C195.9 64.2 197.5 65.8 199.5 65.8H207.4C209.4 65.8 211 64.2 211 62.2V57.5H195.9Z" fill="#231F20"/>
<path d="M199.5 57.5H190.9C190.5 57.5 190.2 57.2 190.2 56.8C190.2 56.4 190.5 56.1 190.9 56.1H199.5C199.9 56.1 200.2 56.4 200.2 56.8C200.2 57.2 199.9 57.5 199.5 57.5Z" fill="#231F20"/>
<path d="M67.4001 96.7C67.4001 96.7 42.9 97.5 33.3 115.2C23.7 132.9 23.3 158.7 23.3 158.7H135C135 158.7 122.5 116.2 105.7 106.1C88.9 96 67.4001 96.7 67.4001 96.7Z" fill="#02AF91"/>
<path d="M40.2 152C40.1 152 40 152 39.9 151.9C39.6 151.7 39.4 151.3 39.6 151C40.1 150 45.7 129.8 49.3 116.5C49.4 116.1 49.8 115.9 50.2 116C50.6 116.1 50.8 116.5 50.7 116.8C49.7 120.2 41.4 150.4 40.9 151.5C40.8 151.8 40.5 152 40.2 152Z" fill="#231F20"/>
<path d="M80.6001 33.9C80.6001 33.9 86.8001 18.2 70.9001 14.2C55.0001 10.2 40.4001 20.7 42.2001 34.7C44.0001 48.7 54.7001 49 54.7001 49L80.6001 33.9Z" fill="white"/>
<path d="M54.7 49.7C54.6 49.7 43.4 49.3 41.5 34.8C40.6 28.7 42.9 22.6 47.6 18.6C53.6 13.3 62.3 11.4 71 13.5C75.8 14.7 79.2 17.1 81 20.6C84.1 26.7 81.4 33.8 81.3 34.2C81.2 34.3 81.1 34.5 81 34.6L55.1 49.7C55 49.6 54.8 49.7 54.7 49.7ZM63.9 14.1C58.2 14 52.8 16 48.5 19.7C44.2 23.4 42 29.1 42.8 34.7C44.5 47.1 53.1 48.2 54.5 48.3L80 33.4C80.4 32.2 82.3 26.2 79.7 21.2C78.1 18.1 75 16 70.6 14.9C68.5 14.3 66.2 14.1 63.9 14.1Z" fill="#231F20"/>
<path d="M57.3 35.5C59.7 34 62.3 33 65 32.5C72.5 31 81.1 32.3 86.3 37.9C83.8 36 80.4 37.5 77.4 38.5C74.8 39.4 72.1 39.8 69.5 40.6C66 41.7 62.8 43.4 59.9 45.6C58.2 46.9 54.2 52.6 52.2 52.5C48.5 52.2 50.1 45.8 50.8 43.9C52.1 40.4 54.3 37.5 57.3 35.5Z" fill="#D1D3D4"/>
<path d="M52.5 53.2H52.4C51.5 53.2 50.6 52.7 50.1 51.9C48.4 49.4 50.2 44.2 50.4 43.6C51.6 40 53.9 37 57 34.9C59.4 33.4 62.2 32.3 65 31.8C71.8 30.4 81.1 31.2 87 37.4C87.3 37.7 87.3 38.1 87 38.4C86.7 38.7 86.3 38.7 86 38.4C84 36.9 81.2 37.9 78.5 38.8L77.7 39.1C76.3 39.6 74.8 40 73.4 40.3C72.2 40.6 71 40.9 69.9 41.2C66.5 42.3 63.3 43.9 60.5 46.1C59.7 46.8 58.9 47.6 58.2 48.5C55.8 51.3 54 53.2 52.5 53.2ZM70.8 32.7C68.9 32.7 67 32.9 65.2 33.3C62.6 33.8 60 34.7 57.7 36.2C54.9 38.1 52.7 40.9 51.7 44.2C51 46.2 50.3 49.8 51.3 51.2C51.6 51.6 52 51.9 52.5 51.9C53.4 51.9 55.8 49.3 57.2 47.8C58 46.8 58.8 46 59.7 45.2C62.6 42.9 66 41.2 69.5 40.1C70.7 39.7 71.9 39.4 73.1 39.1C74.5 38.8 75.9 38.4 77.3 37.9L78.1 37.7C79.8 37 81.6 36.6 83.5 36.4C79.6 33.8 75.2 32.6 70.8 32.7Z" fill="#231F20"/>
<path d="M96.6001 39C88.1001 34.3 76.7001 33.5 67.4001 36.3C58.1001 39.1 52.2001 46.7 50.0001 56.1C48.5001 62.6 47.3001 72.5 52.6001 77.3C58.4001 82.6 65.3001 85.4 73.1001 86.7C81.1001 87.9 91.0001 87.8 97.6001 82.6C104.2 77.4 108.6 68.2 108.8 60.1C109.2 50 104 43.1 96.6001 39Z" fill="white"/>
<path d="M81.0002 88C78.3002 88 75.6002 87.8 73.0002 87.4C64.5002 86.1 57.7002 83 52.1002 77.9C46.7002 73 47.6002 63.3 49.3002 56C51.7002 45.8 58.2002 38.3 67.2002 35.7C76.9002 32.8 88.6002 33.9 96.9002 38.5C105.3 43.1 109.8 50.8 109.5 60.1C109.2 68.6 104.5 78.1 98.0002 83.2C93.2002 87 86.7002 88 81.0002 88ZM78.6002 35.4C74.9002 35.4 71.2002 35.9 67.6002 36.9C59.0002 39.5 53.0002 46.3 50.7002 56.2C49.4002 61.9 47.9002 72.1 53.1002 76.7C58.5002 81.6 65.1002 84.6 73.3002 85.9C79.2002 86.8 90.1002 87.5 97.3002 81.9C103.5 77.1 108 68 108.2 59.9C108.6 48.7 101.9 42.6 96.3002 39.5C90.8002 36.8 84.7002 35.3 78.6002 35.4Z" fill="#231F20"/>
<path d="M88.9001 95.8L90.1001 112.7C90.1001 112.7 88.5001 120.6 77.0001 118.7C65.5001 116.8 63.2001 109.2 63.2001 109.2L62.1001 77.6C62.1001 77.6 79.0001 66.8 75.1001 48.9C75.1001 48.9 83.1001 58.7 99.6001 55.2C99.6001 55.2 101.1 75.3 100.5 84.1C99.9001 93.1 88.9001 95.8 88.9001 95.8Z" fill="white"/>
<path d="M80.2 119.7C79.1 119.7 78 119.6 76.9 119.4C65.1 117.5 62.7 109.8 62.6 109.5C62.6 109.4 62.6 109.4 62.6 109.3L61.5 77.7C61.5 77.5 61.6 77.2 61.8 77.1C62 77 78.3 66.3 74.5 49.1C74.4 48.7 74.7 48.3 75 48.3C75.3 48.2 75.5 48.3 75.7 48.5C75.8 48.6 83.6 57.9 99.6 54.6C99.8 54.6 100 54.6 100.2 54.7C100.4 54.8 100.5 55 100.5 55.2C100.5 55.4 102 75.5 101.4 84.3C100.8 92.4 92.2 95.6 89.8 96.3L91 112.6C91 112.7 91 112.7 91 112.8C90.8 112.9 89.3 119.7 80.2 119.7ZM63.9 109.2C64.2 110 66.7 116.4 77.1 118.1C87.2 119.7 89.2 113.5 89.4 112.7L88.2 95.9C88.2 95.6 88.4 95.3 88.7 95.2C88.8 95.2 99.2 92.5 99.8 84.3C100.4 76.6 99.3 60 99 56.2C86.7 58.5 79.2 53.7 76.2 51.1C78.2 66.6 65.1 76.6 62.8 78.2L63.9 109.2Z" fill="#231F20"/>
<path d="M67.3998 76.4C66.8998 74.9 65.8998 73.6 64.5998 72.7C63.2998 71.9 61.8998 71.3 60.4998 71C59.6998 70.7 58.8998 70.7 58.0998 70.8C57.4998 70.9 56.9998 71.2 56.5998 71.5C55.3998 72.2 54.4998 73.3 54.0998 74.6C53.8998 75.7 53.8998 76.8 54.1998 77.8C54.3998 79 54.7998 80.1 55.2998 81.2C57.5998 85.6 62.9998 87.3 67.3998 85C67.3998 85 67.4998 85 67.4998 84.9" fill="white"/>
<path d="M63.1999 86.6C62.2999 86.6 61.2999 86.5 60.3999 86.2C57.8999 85.4 55.8999 83.7 54.6999 81.4C54.0999 80.3 53.6999 79.1 53.4999 77.9C53.1999 76.7 53.0999 75.5 53.3999 74.3C53.8999 72.8 54.8999 71.6 56.1999 70.8C56.6999 70.4 57.3999 70.1 57.9999 70C58.8999 69.9 59.7999 70 60.6999 70.2C62.1999 70.5 63.6999 71.1 65.0999 72C66.4999 73 67.5999 74.4 68.1999 76.1C68.2999 76.5 68.0999 76.9 67.7999 77C67.3999 77.1 66.9999 76.9 66.8999 76.6C66.3999 75.2 65.5999 74 64.3999 73.2C63.1999 72.5 61.8999 71.9 60.4999 71.6C59.7999 71.4 59.0999 71.3 58.3999 71.4C57.8999 71.5 57.4999 71.7 57.0999 72C56.0999 72.6 55.2999 73.6 54.8999 74.7C54.6999 75.7 54.7999 76.6 54.9999 77.6C55.1999 78.7 55.5999 79.8 56.0999 80.8C58.1999 84.8 63.1999 86.4 67.2999 84.3H67.3999C67.6999 84.1 68.1999 84.2 68.2999 84.6C68.4999 84.9 68.3999 85.4 68.0999 85.6C66.3999 86.3 64.7999 86.6 63.1999 86.6Z" fill="#231F20"/>
<path d="M86.1001 68.6C86.1001 68.6 93.0001 76.7 91.8001 78.4C90.6001 80.1 86.5001 79.5 86.5001 79.5" fill="white"/>
<path d="M87.9999 80.3C87.4999 80.3 86.8999 80.3 86.3999 80.2C85.9999 80.2 85.6999 79.9 85.6999 79.5C85.6999 79.1 85.9999 78.8 86.3999 78.8H86.4999C87.3999 78.9 90.2999 79 91.0999 77.9C91.4999 77.1 88.7999 72.9 85.3999 69C85.0999 68.7 85.1999 68.3 85.4999 68C85.7999 67.7 86.1999 67.8 86.4999 68.1C89.1999 71.3 93.5999 76.9 92.1999 78.8C91.3999 80.1 89.4999 80.3 87.9999 80.3Z" fill="#231F20"/>
<path d="M91.2999 84.2L77.9999 79.6C77.9999 79.6 75.4999 84.5 80.2999 89.2C85.4999 94.3 91.2999 84.2 91.2999 84.2Z" fill="white"/>
<path d="M83.4998 91.4C82.0998 91.4 80.7998 90.8 79.8998 89.8C74.7998 84.8 77.4998 79.4 77.4998 79.4C77.6998 79.1 77.9998 78.9 78.3998 79L91.6998 83.6C91.8998 83.7 92.0998 83.8 92.0998 84C92.1998 84.2 92.1998 84.4 92.0998 84.6C91.9998 84.8 88.4998 90.8 84.2998 91.4C83.8998 91.3 83.6998 91.4 83.4998 91.4ZM78.4998 80.5C78.0998 81.8 77.3998 85.3 80.8998 88.7C81.6998 89.6 82.7998 90 83.9998 89.9C86.6998 89.5 89.2998 86.1 90.2998 84.5L78.4998 80.5Z" fill="#231F20"/>
<path d="M82.2002 66.9C82.1002 66.9 81.9002 66.9 81.8002 66.8C78.3002 64.7 76.2002 65.5 76.2002 65.5C75.8002 65.6 75.4002 65.4 75.3002 65.1C75.2002 64.8 75.3002 64.4 75.7002 64.2C75.8002 64.2 78.5002 63.1 82.6002 65.6C82.9002 65.8 83.0002 66.2 82.8002 66.6C82.7002 66.8 82.5002 66.9 82.2002 66.9Z" fill="#231F20"/>
<path d="M90.8002 67C90.6002 67 90.4002 66.9 90.3002 66.8C90.0002 66.5 90.0002 66.1 90.3002 65.8C90.4002 65.7 90.6002 65.6 90.8002 65.6L91.4002 65.3C92.7002 64.5 95.4002 63 98.1002 64.1C98.5002 64.3 98.6002 64.7 98.5002 65C98.4002 65.4 98.0002 65.5 97.6002 65.4C95.6002 64.6 93.3002 65.8 92.1002 66.5C91.7002 66.7 91.3002 66.9 90.8002 67Z" fill="#231F20"/>
<path d="M88.8999 95.8C88.8999 95.8 80.0999 96.2 75.8999 94C75.8999 94 79.7999 103.9 89.3999 105.9L88.8999 95.8Z" fill="#231F20"/>
<path d="M89.5 106.7H89.3C79.4 104.6 75.4 94.8 75.3 94.3C75.2 94 75.3 93.7 75.5 93.5C75.7 93.3 76 93.3 76.3 93.4C80.3 95.5 88.8 95.1 88.9 95.1C89.3 95.1 89.6 95.4 89.6 95.8L90.1 106C90.1 106.2 90 106.4 89.9 106.6C89.8 106.7 89.6 106.7 89.5 106.7ZM77.4 95.4C78.9 98.1 82.5 103.4 88.8 105.1L88.3 96.6C86.4 96.6 81.2 96.6 77.4 95.4Z" fill="#231F20"/>
<path d="M45.5 157.7C48.1 148.1 39.3 131.3 36.8 122.9C34.5 115.1 23.8 94.7 25.8 86.7C25.8 86.7 30.7 67.3 26 70.2C23.4 71.8 21.5 79.8 21.5 79.8C21.5 79.8 18.6 62.2 14 60.4C9.39997 58.6 0.299972 70.2 1.69997 75.1C6.19997 91.3 7.89997 108.4 9.99997 125C11.8 139.9 11.5 163.7 31.9 164.8C40.3 165.2 44.2 162.3 45.5 157.7Z" fill="white"/>
<path d="M33.5 165.5C33 165.5 32.4 165.5 31.8 165.5C13.2 164.5 11.2 144.9 9.8 130.6C9.6 128.7 9.4 126.8 9.2 125.1L8.5 119.4C6.8 104.7 5 89.6 0.999997 75.3C-2.5779e-06 71.9 3.6 65.8 7.4 62.3C10 59.9 12.4 59.1 14.2 59.7C18 61.2 20.5 71.4 21.6 76.7C22.4 74.1 23.8 70.7 25.6 69.6C26.2 69.1 27 69.1 27.7 69.5C30.2 71.3 27.4 83.3 26.4 86.9C25 92.3 30 104.4 33.7 113.2C35.3 117.1 36.7 120.4 37.4 122.7C38.1 125 39.2 127.7 40.3 130.6C43.8 139.5 48.1 150.6 46.1 157.8C44.8 163 40.5 165.5 33.5 165.5ZM13 60.9C11.8 60.9 10.1 61.7 8.4 63.3C4.5 66.8 1.7 72.3 2.4 74.9C6.4 89.3 8.2 104.5 10 119.2L10.7 124.9C10.9 126.6 11.1 128.5 11.3 130.4C12.7 144.9 14.5 163.1 32 164C39.3 164.4 43.5 162.2 44.8 157.5C46.7 150.6 42.4 139.8 39 131.1C37.8 128.1 36.7 125.3 36 123.1C35.3 120.9 34 117.6 32.4 113.8C28.5 104.3 23.5 92.5 25 86.6C26.8 79.6 27.9 71.5 26.8 70.7C26.8 70.7 26.6 70.7 26.3 70.9C24.3 72.1 22.6 77.9 22.2 80.1C22.1 80.4 21.8 80.7 21.5 80.7C21.2 80.7 20.9 80.4 20.8 80.1C20 75.3 17.2 62.6 13.8 61.2C13.5 61 13.3 60.9 13 60.9Z" fill="#231F20"/>
<path d="M11.4 88.2H11.2C10.8 88.1 10.6 87.7 10.7 87.4C12 82 20.8 79.3 21.2 79.2C21.6 79.1 22 79.3 22.1 79.7C22.2 80.1 22 80.5 21.6 80.6C21.5 80.6 13.2 83.2 12 87.8C12 88 11.8 88.2 11.4 88.2Z" fill="#231F20"/>
<path d="M108.9 159.3C108.6 159.3 108.3 159 108.2 158.7L102.2 119.1C102.1 118.7 102.3 118.3 102.7 118.3C103.1 118.2 103.5 118.4 103.5 118.8V118.9L109.5 158.5C109.6 158.9 109.3 159.2 108.9 159.3Z" fill="#231F20"/>
<path d="M59.8 134.6C59.7 134.6 59.6 134.6 59.5 134.6C59.1 134.5 59 134.1 59.1 133.7L66.6 114.7C66.7 114.3 67.1 114.2 67.5 114.3C67.9 114.4 68 114.8 67.9 115.2L60.4 134.2C60.3 134.4 60 134.6 59.8 134.6Z" fill="#231F20"/>
<path d="M69.1002 121.8C69.0002 121.8 69.0002 121.8 68.9002 121.8L60.8002 119C60.4002 118.9 60.2002 118.5 60.4002 118.1C60.5002 117.7 60.9002 117.5 61.3002 117.7L69.4002 120.4C69.8002 120.5 70.0002 120.9 69.8002 121.3C69.6002 121.6 69.4002 121.7 69.1002 121.8Z" fill="#231F20"/>
<path d="M67.3002 128.4C67.2002 128.4 67.1002 128.4 67.0002 128.4L58.7002 125.1C58.3002 124.9 58.2002 124.5 58.3002 124.2C58.4002 123.8 58.8002 123.7 59.2002 123.8L67.5002 127.1C67.9002 127.2 68.0002 127.7 67.9002 128C67.8002 128.2 67.6002 128.4 67.3002 128.4Z" fill="#231F20"/>
<path d="M243.1 123.6C246.1 114.1 251.5 110.7 274.2 98.6C296.9 86.5 330.2 95.6 342.2 102.8C354.2 110 363 120.6 369.7 128.9C376.4 137.2 376.4 158.4 376.4 158.4H240.5C240.5 158.4 240.2 133.1 243.1 123.6Z" fill="#02AF91"/>
<path d="M341.5 159.1C341.1 159.1 340.8 158.8 340.8 158.5L338.1 126.6C338.1 126.2 338.4 125.9 338.7 125.8C339.1 125.8 339.4 126.1 339.5 126.4L342.2 158.3C342.2 158.7 341.9 159 341.5 159.1Z" fill="#231F20"/>
<path d="M303.8 23.9C320 25.3 327.6 33.1 331.9 66.9C335.3 93.5 333.1 91.4 350.4 107.7C350.4 107.7 334.6 129.3 302.6 129.3C270.6 129.3 248.5 112.7 248.5 112.7C248.5 112.7 272.7 97.9 272.2 83.4C270.7 32.9 287.6 22.5 303.8 23.9Z" fill="white"/>
<path d="M302.7 130C283.3 129.9 264.3 124 248.2 113.2C248 113.1 247.9 112.8 247.9 112.6C247.9 112.4 248 112.2 248.2 112C248.4 111.9 272 97.3 271.6 83.4C270.8 56.5 275.1 38.3 284.5 29.4C289.6 24.6 296.1 22.5 303.8 23.2C321.7 24.7 328.4 34.9 332.5 66.8C332.9 69.8 333.2 72.4 333.5 74.7C335.7 92.8 335.7 92.8 350.8 107L350.9 107.1C351.2 107.3 351.2 107.7 351 108C350.9 108.3 334.6 130 302.7 130ZM249.9 112.7C265.6 122.9 284 128.5 302.7 128.6C331.2 128.6 346.9 110.9 349.5 107.7C334.4 93.5 334.4 93.4 332.2 74.9C331.9 72.6 331.6 70 331.2 67C326.8 32.6 318.8 25.9 303.7 24.6C296.3 24 290.2 25.9 285.4 30.5C276.3 39.1 272.1 56.9 272.9 83.4C273.4 96.7 254.3 109.8 249.9 112.7Z" fill="#231F20"/>
<path d="M301.3 88.4C311.296 88.4 319.4 76.8041 319.4 62.5C319.4 48.1958 311.296 36.6 301.3 36.6C291.303 36.6 283.2 48.1958 283.2 62.5C283.2 76.8041 291.303 88.4 301.3 88.4Z" fill="white"/>
<path d="M301.3 89.1C284.7 89.1 282.4 76.3 282.4 62.5C282.4 48.2 282.4 35.9 301.3 35.9C320.2 35.9 320.1 48.2 320.1 62.5C320.2 76.3 317.9 89.1 301.3 89.1ZM301.3 37.3C283.8 37.3 283.8 47.9 283.8 62.5C283.8 77.6 286.8 87.7 301.3 87.7C315.8 87.7 318.7 77.6 318.7 62.5C318.8 47.9 318.8 37.3 301.3 37.3Z" fill="#231F20"/>
<path d="M298 58.5C298 58.5 291.1 66.6 292.3 68.3C293.5 70 297.5 69.4 297.5 69.4" fill="white"/>
<path d="M296.1 70.2C294.7 70.2 292.7 70 291.8 68.7C290.5 66.8 294.8 61.2 297.5 58.1C297.7 57.8 298.2 57.8 298.5 58C298.8 58.2 298.8 58.7 298.6 59C295.2 63 292.6 67.2 293 67.9C293.8 69 296.6 68.9 297.6 68.7C298 68.7 298.3 68.9 298.4 69.3C298.5 69.7 298.2 70 297.8 70.1C297.1 70.2 296.6 70.2 296.1 70.2Z" fill="#231F20"/>
<path d="M290.616 58.2035C291.445 58.1989 292.111 57.255 292.105 56.0952C292.098 54.9354 291.421 53.9989 290.593 54.0035C289.764 54.0082 289.098 54.9521 289.105 56.1119C289.111 57.2717 289.788 58.2081 290.616 58.2035Z" fill="#231F20"/>
<path d="M306.116 58.2036C306.945 58.199 307.611 57.255 307.605 56.0952C307.598 54.9354 306.921 53.999 306.093 54.0036C305.264 54.0082 304.598 54.9522 304.605 56.112C304.611 57.2718 305.288 58.2082 306.116 58.2036Z" fill="#231F20"/>
<path d="M292.8 74.1L306.1 69.5C306.1 69.5 308.6 74.4 303.8 79.1C298.6 84.2 292.8 74.1 292.8 74.1Z" fill="white"/>
<path d="M300.6 81.3C300.4 81.3 300.2 81.3 300 81.3C295.8 80.7 292.3 74.8 292.2 74.5C292 74.2 292.1 73.7 292.5 73.5H292.6L305.9 68.9C306.2 68.8 306.6 68.9 306.8 69.2C306.8 69.3 309.4 74.6 304.4 79.6C303.3 80.7 302 81.2 300.6 81.3ZM293.8 74.4C294.8 75.9 297.4 79.4 300.2 79.8C301.4 79.9 302.5 79.5 303.3 78.6C306.8 75.2 306.1 71.7 305.7 70.4L293.8 74.4Z" fill="#231F20"/>
<path d="M272.2 159.1C271.8 159.1 271.5 158.8 271.5 158.4V130.6C271.5 130.2 271.8 129.9 272.2 129.9C272.6 129.9 272.9 130.2 272.9 130.6V158.4C272.9 158.8 272.6 159.1 272.2 159.1Z" fill="#231F20"/>
<path d="M303.1 105.1C296.8 105 290.5 104.1 284.4 102.4C284 102.3 283.8 101.9 283.9 101.5C284 101.1 284.4 100.9 284.7 101C300.6 105.3 311.4 103.5 317.7 101.2C324.5 98.7 327.5 95.2 327.6 95.2C327.9 94.9 328.3 94.9 328.6 95.1C328.9 95.3 328.9 95.8 328.7 96.1C328.2 96.6 320.8 105.1 303.1 105.1Z" fill="#D1D3D4"/>
<path d="M240.5 159.1C240.2 159.1 239.9 158.9 239.8 158.5C236.3 138.3 244.3 119 244.4 118.8C244.6 118.4 245 118.3 245.3 118.4C245.7 118.6 245.8 119 245.7 119.3C245.6 119.5 237.8 138.5 241.2 158.3C241.3 158.7 241 159 240.7 159.1H240.5Z" fill="#231F20"/>
<path d="M373 28.8C373 28.8 386.6 2.30002 388.9 1.40002C391.2 0.500017 397.9 3.20003 397.4 4.60003C396.9 6.00003 394.1 18.7 394.1 18.7C394.1 18.7 401.4 14 402.2 15.9C403 17.8 394 27.3 394 27.3L381.799 47.6L373 28.8Z" fill="#D1D3D4"/>
<path d="M381.8 48.3C381.5 48.3 381.3 48.1 381.2 47.9L372.3 29.1C372.2 28.9 372.2 28.7 372.3 28.5C375.5 22.2 386.2 1.69999 388.6 0.69999C390.8 -0.20001 395.9 1.59999 397.5 3.19999C398 3.59999 398.2 4.2 398.1 4.8C397.8 5.7 396.1 12.9 395.2 17.2C397.3 16 400.5 14.3 402 14.8C402.4 14.9 402.7 15.2 402.9 15.6C403.7 17.6 398.1 24.1 394.6 27.8L382.4 48C382.3 48.2 382.1 48.3 381.8 48.3ZM373.8 28.8L381.9 46L393.4 26.9L393.5 26.8C397.5 22.5 401.7 17.2 401.5 16.1C400.9 15.8 397.6 17.3 394.5 19.3C394.3 19.5 393.9 19.5 393.7 19.3C393.5 19.1 393.3 18.8 393.4 18.5C393.5 18 396.1 6.19999 396.7 4.39999C396.1 3.79999 395.4 3.29999 394.5 2.89999C392.4 1.99999 390.1 1.49999 389.1 1.89999C387.7 2.89999 380.2 16.4 373.8 28.8Z" fill="#231F20"/>
<path d="M374 70.7L388.8 37.4L372.3 23.4C372.3 23.4 331.7 75.7 348.7 89.1L387.5 127.1L423.1 102.1L374 70.7Z" fill="#02AF91"/>
<path d="M420.3 47.7C420.3 47.7 421.8 40.1 430 34.8C438.2 29.5 461 33 465.1 42.3C469.2 51.6 457.1 75.9 457.1 75.9L418.2 86.4L420.3 47.7Z" fill="white"/>
<path d="M418.2 87C417.8 87 417.5 86.7 417.5 86.3C417.5 86.3 417.5 86.3 417.5 86.2L419.6 47.6V47.5C419.7 47.2 421.2 39.5 429.7 34.1C434.6 31 444.5 30.6 453.4 33.3C459.8 35.2 464.2 38.3 465.8 41.9C470 51.4 458.3 75.1 457.8 76.1C457.7 76.3 457.5 76.4 457.3 76.5L418.4 87C418.3 87 418.3 87 418.2 87ZM421 47.8L419 85.4L456.6 75.3C457.9 72.5 468.2 51 464.4 42.6C462.9 39.4 458.8 36.5 452.9 34.8C444.5 32.3 434.9 32.6 430.4 35.5C425.8 38.2 422.5 42.6 421 47.8Z" fill="#231F20"/>
<path d="M455.2 158.4C458 137.5 459.8 116.9 457.5 113C449.6 99.5 413.9 107.8 407.3 110.8C404.7 112 406.3 133.1 402.1 158.5H455.2V158.4Z" fill="#231F20"/>
<path d="M488.8 159.3C488.8 159.3 496 123.7 485.1 113.1C474.2 102.5 448.1 104.1 448.1 104.1C448.1 104.1 406.8 98.4 394.1 104.9C388.9 107.6 382.3 130.8 376 158.3H411.7L421.5 110.9L453.5 111.9L443 158.4L488.8 159.3Z" fill="#02AF91"/>
<path d="M424.4 92.4L421.6 111C421.6 111 422.9 123.3 435.3 121.8C442.8 120.8 449.4 116.5 453.3 110.1L457.1 75.9C457.1 75.9 448.7 70.1 453.5 50.9C442.3 51.5 431.1 50.4 420.2 47.8C420.2 47.8 413.6 72.2 414 81.8C414.4 91.4 424.4 92.4 424.4 92.4Z" fill="#D1D3D4"/>
<path d="M433.3 122.6C430.6 122.7 427.9 121.8 425.8 120.2C421.6 116.9 421 111.3 421 111.1C421 111 421 111 421 110.9L423.7 93C421.3 92.5 413.8 90.2 413.4 81.7C413 72.1 419.4 48.5 419.7 47.5C419.8 47.1 420.2 46.9 420.6 47C431.4 49.6 442.5 50.6 453.6 50.1C453.8 50.1 454.1 50.2 454.2 50.3C454.4 50.5 454.4 50.7 454.3 50.9C449.6 69.3 457.5 75.1 457.6 75.2C457.8 75.4 457.9 75.6 457.9 75.9L454.1 110.1C454.1 110.2 454.1 110.3 454 110.4C450 117 443.1 121.5 435.5 122.5C434.7 122.6 434 122.6 433.3 122.6ZM422.4 111C422.5 111.7 423.2 116.3 426.7 119C428.9 120.8 431.8 121.4 435.3 121C442.5 120 448.8 115.9 452.7 109.8L456.4 76.1C454.8 74.7 448.7 68.3 452.7 51.5C442 51.9 431.3 50.9 420.9 48.5C419.8 52.5 414.5 73.1 414.9 81.6C415.3 90.4 424.2 91.6 424.6 91.6C424.8 91.6 425 91.7 425.1 91.9C425.2 92.1 425.3 92.3 425.2 92.4L422.4 111Z" fill="#231F20"/>
<path d="M423 102.1C423 102.1 427.7 103.6 433.7 99.1C439.7 94.6 439.5 91.5 439.5 91.5C439.5 91.5 432.2 94.9 424.5 92.4L423 102.1Z" fill="#231F20"/>
<path d="M425 103C424.2 103 423.5 102.9 422.7 102.7C422.4 102.6 422.2 102.3 422.2 101.9L423.6 92.2C423.6 92 423.7 91.8 423.9 91.7C424.1 91.6 424.3 91.6 424.5 91.6C431.9 94 439 90.8 439 90.8C439.2 90.7 439.4 90.7 439.6 90.8C439.8 90.9 439.9 91.1 439.9 91.4C439.9 91.8 439.9 94.9 433.8 99.6C431.5 101.7 428.3 102.9 425 103ZM423.8 101.6C425.2 101.8 428.8 102 433.3 98.6C436.7 96 438 93.9 438.5 92.7C434.2 94.2 429.5 94.4 425 93.3L423.8 101.6Z" fill="#231F20"/>
<path d="M435.6 65.3C435.6 65.3 428.7 75.3 430.3 77.1C431.9 78.9 436.4 77.8 436.4 77.8" fill="#D1D3D4"/>
<path d="M433.5 78.8C432.1 78.9 430.8 78.5 429.7 77.5C427.9 75.5 432.8 68 434.9 64.9C435.1 64.6 435.6 64.5 435.9 64.7C436.2 64.9 436.3 65.4 436.1 65.7C432.7 70.7 430.1 75.8 430.7 76.6C431.7 77.8 435 77.3 436.1 77C436.5 76.9 436.9 77.1 437 77.5C437.1 77.9 436.9 78.3 436.5 78.4C435.5 78.6 434.5 78.8 433.5 78.8Z" fill="#231F20"/>
<path d="M434.5 85.6H434C428.2 85.4 424.1 80.8 423.9 80.6C423.6 80.3 423.6 79.9 423.9 79.6C424.2 79.3 424.6 79.4 424.9 79.6C424.9 79.6 428.9 83.9 434 84.1C437.1 84.1 440 82.9 442.1 80.7C442.4 80.4 442.8 80.4 443.1 80.7C443.4 81 443.4 81.4 443.1 81.7C440.9 84.2 437.8 85.6 434.5 85.6Z" fill="#231F20"/>
<path d="M444.798 63.9534C444.857 62.4081 444.369 61.1347 443.707 61.1091C443.044 61.0836 442.459 62.3156 442.399 63.8609C442.34 65.4062 442.828 66.6797 443.491 66.7052C444.153 66.7308 444.738 65.4987 444.798 63.9534Z" fill="#231F20"/>
<path d="M427.47 62.0703C427.529 60.525 427.041 59.2516 426.378 59.226C425.716 59.2004 425.131 60.4325 425.071 61.9778C425.012 63.5231 425.5 64.7965 426.163 64.8221C426.825 64.8476 427.41 63.6157 427.47 62.0703Z" fill="#231F20"/>
<path d="M449.9 70C451.2 68.3 452.8 66.8 454.6 65.7C455.6 65 456.7 64.7 457.9 64.7C458.8 64.8 459.7 65.2 460.5 65.8C462.8 67.5 464.2 70 464.5 72.9C464.6 74.2 464.4 75.5 464 76.7C463.1 78.5 461.6 80 459.7 80.8C457.8 81.6 455.9 82.2 453.9 82.6" fill="#D1D3D4"/>
<path d="M453.8 83.2C453.4 83.2 453.1 82.9 453 82.5C453 82.1 453.2 81.8 453.6 81.7C455.5 81.3 457.4 80.8 459.2 79.9C460.9 79.1 462.3 77.8 463.1 76.1C463.5 75 463.7 73.8 463.6 72.7C463.3 70.1 462 67.7 459.9 66.2C459.3 65.7 458.5 65.4 457.7 65.3C456.7 65.3 455.7 65.7 454.9 66.2C453.2 67.3 451.6 68.7 450.4 70.3C450.2 70.6 449.7 70.7 449.4 70.5C449.1 70.3 449 69.8 449.3 69.5C450.6 67.7 452.3 66.2 454.2 65C455.3 64.3 456.6 63.8 457.9 63.9C459 64 460 64.4 460.9 65.1C463.3 66.9 464.9 69.7 465.2 72.7C465.3 74.1 465.1 75.5 464.6 76.8C463.6 78.8 462 80.4 460 81.3C458.1 82.2 456.1 82.8 454.1 83.2H453.8Z" fill="#231F20"/>
<path d="M478.8 138.1C475.2 142.8 470.3 150.1 465.1 158.4H478.8V138.1Z" fill="#02AF91"/>
<path d="M465.1 159.1C464.7 159.1 464.4 158.8 464.4 158.4C464.4 158.3 464.4 158.2 464.5 158.1L478.2 126.8C478.4 126.4 478.8 126.3 479.2 126.4C479.6 126.6 479.7 127 479.6 127.3L465.9 158.6C465.7 158.9 465.4 159.1 465.1 159.1Z" fill="#231F20"/>
<path d="M383.1 23.4C382.9 23.4 382.8 23.4 382.7 23.3C382.4 23.1 382.3 22.6 382.6 22.3C387 16.4 394 18 394.3 18C394.7 18.1 394.9 18.4 394.9 18.8C394.8 19.2 394.5 19.4 394.1 19.4C394.1 19.4 394.1 19.4 394 19.4C393.7 19.3 387.5 18 383.8 23.1C383.6 23.3 383.3 23.4 383.1 23.4Z" fill="#231F20"/>
</g>
<defs>
<clipPath id="clip0_157_436">
<rect width="492" height="166" fill="white"/>
</clipPath>
</defs>
</svg>
